<svg width="60" height="17" viewBox="0 0 60 17" fill="none" xmlns="http://www.w3.org/2000/svg">
<path d="M54.5202 9.63616L54.6551 6.639L52.1267 8.26543L51.3525 6.91599L54.0372 5.54525L51.3525 4.17452L52.1267 2.82508L54.6551 4.4515L54.5202 1.45435H56.0613L55.9264 4.4515L58.4548 2.82508L59.229 4.17452L56.5443 5.54525L59.229 6.91599L58.4548 8.26543L55.9264 6.639L56.0613 9.63616H54.5202Z" fill="#555555"/>
<path d="M48.6448 1.45435V15.9998H46.5212V1.45435H48.6448Z" fill="#555555"/>
<path d="M41.5406 15.9999V5.09082H43.6642V15.9999H41.5406ZM42.6131 3.40758C42.2438 3.40758 41.9265 3.28447 41.6614 3.03826C41.401 2.78732 41.2708 2.48902 41.2708 2.14338C41.2708 1.793 41.401 1.4947 41.6614 1.24849C41.9265 0.997544 42.2438 0.87207 42.6131 0.87207C42.9824 0.87207 43.2973 0.997544 43.5577 1.24849C43.8228 1.4947 43.9554 1.793 43.9554 2.14338C43.9554 2.48902 43.8228 2.78732 43.5577 3.03826C43.2973 3.28447 42.9824 3.40758 42.6131 3.40758Z" fill="#555555"/>
<path d="M33.3287 16.2413C32.6374 16.2413 32.0124 16.1135 31.4537 15.8578C30.8949 15.5974 30.4522 15.221 30.1255 14.7286C29.8036 14.2361 29.6426 13.6324 29.6426 12.9175C29.6426 12.302 29.7609 11.7953 29.9977 11.3976C30.2344 10.9999 30.554 10.685 30.9565 10.453C31.359 10.221 31.8088 10.0458 32.3059 9.92742C32.8031 9.80905 33.3097 9.71909 33.8258 9.65754C34.4792 9.58178 35.0095 9.52023 35.4167 9.47288C35.8239 9.42079 36.1199 9.33793 36.3045 9.2243C36.4892 9.11066 36.5815 8.926 36.5815 8.67032V8.62061C36.5815 8.00034 36.4063 7.51975 36.0559 7.17884C35.7103 6.83793 35.1942 6.66748 34.5076 6.66748C33.7927 6.66748 33.2292 6.8261 32.8173 7.14333C32.4101 7.45583 32.1284 7.80384 31.9721 8.18737L29.9764 7.73282C30.2131 7.06994 30.5588 6.5349 31.0133 6.12771C31.4726 5.71578 32.0005 5.41748 32.5971 5.23282C33.1937 5.04343 33.8211 4.94873 34.4792 4.94873C34.9148 4.94873 35.3765 5.00081 35.8642 5.10498C36.3566 5.20441 36.8159 5.38907 37.242 5.65896C37.6729 5.92884 38.0256 6.31473 38.3002 6.81663C38.5749 7.31379 38.7122 7.96009 38.7122 8.75555V15.9999H36.6383V14.5084H36.5531C36.4158 14.783 36.2098 15.0529 35.9352 15.318C35.6606 15.5832 35.3078 15.8034 34.877 15.9786C34.4461 16.1537 33.93 16.2413 33.3287 16.2413ZM33.7903 14.5368C34.3774 14.5368 34.8793 14.4208 35.296 14.1888C35.7174 13.9568 36.037 13.6537 36.2548 13.2797C36.4773 12.9009 36.5886 12.4961 36.5886 12.0652V10.659C36.5128 10.7347 36.3661 10.8057 36.1483 10.872C35.9352 10.9336 35.6913 10.988 35.4167 11.0354C35.1421 11.078 34.8746 11.1182 34.6142 11.1561C34.3538 11.1893 34.1359 11.2177 33.9608 11.2413C33.5488 11.2934 33.1724 11.381 32.8315 11.5041C32.4953 11.6272 32.2254 11.8048 32.0218 12.0368C31.823 12.2641 31.7235 12.5671 31.7235 12.9459C31.7235 13.4715 31.9177 13.8692 32.3059 14.1391C32.6942 14.4042 33.189 14.5368 33.7903 14.5368Z" fill="#555555"/>
<path d="M12.4783 15.9999V5.09078H14.5166V6.86634H14.6516C14.8788 6.26502 15.2505 5.79627 15.7666 5.46009C16.2827 5.11919 16.9006 4.94873 17.6203 4.94873C18.3495 4.94873 18.9603 5.11919 19.4527 5.46009C19.9499 5.801 20.3168 6.26975 20.5536 6.86634H20.6672C20.9276 6.28396 21.3419 5.81994 21.9101 5.4743C22.4783 5.12392 23.1554 4.94873 23.9413 4.94873C24.9309 4.94873 25.7382 5.25886 26.3632 5.87913C26.9929 6.49939 27.3078 7.43452 27.3078 8.68452V15.9999H25.1842V8.88339C25.1842 8.14475 24.983 7.60971 24.5805 7.27827C24.1781 6.94684 23.6975 6.78112 23.1388 6.78112C22.4475 6.78112 21.9101 6.99418 21.5266 7.42032C21.143 7.84172 20.9513 8.38386 20.9513 9.04674V15.9999H18.8348V8.74845C18.8348 8.15659 18.6501 7.68074 18.2808 7.32089C17.9115 6.96104 17.4309 6.78112 16.8391 6.78112C16.4366 6.78112 16.0649 6.88765 15.724 7.10072C15.3878 7.30905 15.1156 7.60025 14.9072 7.9743C14.7037 8.34835 14.6019 8.78159 14.6019 9.27401V15.9999H12.4783Z" fill="#555555"/>
<path d="M0.5979 15.9998V1.45435H9.71722V3.34355H2.7925V7.77537H9.24137V9.65747H2.7925V14.1106H9.80245V15.9998H0.5979Z" fill="#555555"/>
</svg>
