<svg width="59" height="16" viewBox="0 0 59 16" fill="none" xmlns="http://www.w3.org/2000/svg">
<path d="M53.9225 8.76422L54.0574 5.76706L51.529 7.39348L50.7549 6.04405L53.4395 4.67331L50.7549 3.30257L51.529 1.95314L54.0574 3.57956L53.9225 0.582397H55.4637L55.3287 3.57956L57.8572 1.95314L58.6313 3.30257L55.9466 4.67331L58.6313 6.04405L57.8572 7.39348L55.3287 5.76706L55.4637 8.76422H53.9225Z" fill="#555555"/>
<path d="M48.0464 0.582397V15.1279H45.9229V0.582397H48.0464Z" fill="#555555"/>
<path d="M40.9427 15.1278V4.21875H43.0663V15.1278H40.9427ZM42.0152 2.53551C41.6459 2.53551 41.3286 2.4124 41.0635 2.16619C40.8031 1.91525 40.6729 1.61695 40.6729 1.27131C40.6729 0.920928 40.8031 0.622633 41.0635 0.37642C41.3286 0.125473 41.6459 0 42.0152 0C42.3845 0 42.6994 0.125473 42.9598 0.37642C43.2249 0.622633 43.3575 0.920928 43.3575 1.27131C43.3575 1.61695 43.2249 1.91525 42.9598 2.16619C42.6994 2.4124 42.3845 2.53551 42.0152 2.53551Z" fill="#555555"/>
<path d="M32.731 15.3693C32.0397 15.3693 31.4147 15.2415 30.856 14.9858C30.2973 14.7254 29.8546 14.349 29.5279 13.8566C29.2059 13.3641 29.0449 12.7604 29.0449 12.0455C29.0449 11.4299 29.1633 10.9233 29.4 10.5256C29.6368 10.1279 29.9564 9.81299 30.3588 9.58098C30.7613 9.34897 31.2111 9.17379 31.7083 9.05541C32.2054 8.93704 32.7121 8.84708 33.2282 8.78553C33.8816 8.70977 34.4119 8.64822 34.8191 8.60087C35.2263 8.54878 35.5222 8.46593 35.7069 8.35229C35.8915 8.23865 35.9838 8.05399 35.9838 7.79831V7.7486C35.9838 7.12833 35.8087 6.64774 35.4583 6.30683C35.1126 5.96592 34.5965 5.79547 33.91 5.79547C33.195 5.79547 32.6316 5.95409 32.2196 6.27132C31.8124 6.58382 31.5307 6.93183 31.3745 7.31536L29.3787 6.86081C29.6155 6.19793 29.9611 5.6629 30.4157 5.2557C30.8749 4.84377 31.4029 4.54547 31.9995 4.36081C32.5961 4.17142 33.2234 4.07672 33.8816 4.07672C34.3172 4.07672 34.7788 4.1288 35.2665 4.23297C35.7589 4.3324 36.2182 4.51706 36.6444 4.78695C37.0752 5.05683 37.428 5.44272 37.7026 5.94462C37.9772 6.44178 38.1145 7.08808 38.1145 7.88354V15.1279H36.0407V13.6364H35.9554C35.8181 13.911 35.6122 14.1809 35.3375 14.446C35.0629 14.7112 34.7102 14.9314 34.2793 15.1066C33.8484 15.2817 33.3323 15.3693 32.731 15.3693ZM33.1926 13.6648C33.7798 13.6648 34.2817 13.5488 34.6983 13.3168C35.1197 13.0848 35.4393 12.7817 35.6571 12.4077C35.8797 12.0289 35.9909 11.6241 35.9909 11.1932V9.78695C35.9152 9.8627 35.7684 9.93373 35.5506 10C35.3375 10.0616 35.0937 10.116 34.8191 10.1634C34.5444 10.206 34.2769 10.2462 34.0165 10.2841C33.7561 10.3173 33.5383 10.3457 33.3631 10.3693C32.9512 10.4214 32.5748 10.509 32.2338 10.6321C31.8977 10.7552 31.6278 10.9328 31.4242 11.1648C31.2253 11.3921 31.1259 11.6951 31.1259 12.0739C31.1259 12.5994 31.32 12.9972 31.7083 13.2671C32.0965 13.5322 32.5913 13.6648 33.1926 13.6648Z" fill="#555555"/>
<path d="M11.8799 15.1279V4.21877H13.9182V5.99433H14.0532C14.2805 5.39301 14.6521 4.92426 15.1682 4.58809C15.6843 4.24718 16.3022 4.07672 17.0219 4.07672C17.7511 4.07672 18.3619 4.24718 18.8543 4.58809C19.3515 4.92899 19.7184 5.39774 19.9552 5.99433H20.0688C20.3292 5.41195 20.7435 4.94793 21.3117 4.60229C21.8799 4.25191 22.557 4.07672 23.343 4.07672C24.3325 4.07672 25.1398 4.38685 25.7648 5.00712C26.3946 5.62738 26.7094 6.56252 26.7094 7.81252V15.1279H24.5858V8.01138C24.5858 7.27274 24.3846 6.7377 23.9822 6.40627C23.5797 6.07483 23.0991 5.90911 22.5404 5.90911C21.8491 5.90911 21.3117 6.12217 20.9282 6.54831C20.5447 6.96971 20.3529 7.51185 20.3529 8.17473V15.1279H18.2364V7.87644C18.2364 7.28458 18.0518 6.80873 17.6824 6.44888C17.3131 6.08903 16.8325 5.90911 16.2407 5.90911C15.8382 5.90911 15.4665 6.01564 15.1256 6.22871C14.7894 6.43704 14.5172 6.72824 14.3089 7.10229C14.1053 7.47634 14.0035 7.90958 14.0035 8.402V15.1279H11.8799Z" fill="#555555"/>
<path d="M0 15.1279V0.582397H9.11932V2.4716H2.1946V6.90342H8.64347V8.78552H2.1946V13.2386H9.20455V15.1279H0Z" fill="#555555"/>
</svg>
