<svg width="64" height="15" viewBox="0 0 64 15" fill="none" xmlns="http://www.w3.org/2000/svg">
<path d="M58.5902 8.18182L58.7252 5.18466L56.1968 6.81108L55.4226 5.46165L58.1073 4.09091L55.4226 2.72017L56.1968 1.37074L58.7252 2.99716L58.5902 0H60.1314L59.9965 2.99716L62.5249 1.37074L63.299 2.72017L60.6144 4.09091L63.299 5.46165L62.5249 6.81108L59.9965 5.18466L60.1314 8.18182H58.5902Z" fill="#555555"/>
<path d="M48.5353 14.7657C47.4605 14.7657 46.5348 14.5361 45.7583 14.0768C44.9865 13.6128 44.3899 12.9617 43.9685 12.1236C43.5518 11.2808 43.3435 10.2936 43.3435 9.162C43.3435 8.04457 43.5518 7.05973 43.9685 6.20745C44.3899 5.35518 44.977 4.68993 45.7299 4.21171C46.4874 3.73349 47.3729 3.49438 48.3861 3.49438C49.0016 3.49438 49.5982 3.59618 50.1759 3.79978C50.7535 4.00338 51.272 4.32298 51.7313 4.75859C52.1906 5.19419 52.5528 5.76001 52.8179 6.45603C53.0831 7.14732 53.2157 7.98776 53.2157 8.97734V9.73018H44.5438V8.13927H51.1347C51.1347 7.58056 51.0211 7.08577 50.7938 6.6549C50.5665 6.21929 50.2469 5.87601 49.835 5.62506C49.4278 5.37412 48.9496 5.24865 48.4003 5.24865C47.8037 5.24865 47.2829 5.39543 46.8378 5.68899C46.3975 5.97781 46.0566 6.3566 45.8151 6.82535C45.5784 7.28936 45.46 7.79363 45.46 8.33813V9.58103C45.46 10.3102 45.5878 10.9305 45.8435 11.4418C46.1039 11.9532 46.4661 12.3438 46.9302 12.6137C47.3942 12.8789 47.9363 13.0114 48.5566 13.0114C48.959 13.0114 49.326 12.9546 49.6574 12.841C49.9889 12.7226 50.2753 12.5474 50.5168 12.3154C50.7583 12.0834 50.9429 11.7969 51.0708 11.456L53.0807 11.8182C52.9197 12.4101 52.6309 12.9286 52.2142 13.3736C51.8023 13.814 51.2838 14.1573 50.6588 14.4035C50.0386 14.645 49.3307 14.7657 48.5353 14.7657Z" fill="#555555"/>
<path d="M26.1577 14.5455V3.63643H28.1961V5.412H28.331C28.5583 4.81067 28.93 4.34192 29.4461 4.00575C29.9622 3.66484 30.5801 3.49438 31.2998 3.49438C32.0289 3.49438 32.6397 3.66484 33.1321 4.00575C33.6293 4.34666 33.9963 4.81541 34.233 5.412H34.3466C34.6071 4.82961 35.0213 4.3656 35.5895 4.01995C36.1577 3.66957 36.8348 3.49438 37.6208 3.49438C38.6104 3.49438 39.4177 3.80452 40.0427 4.42478C40.6724 5.04505 40.9873 5.98018 40.9873 7.23018V14.5455H38.8637V7.42904C38.8637 6.69041 38.6624 6.15537 38.26 5.82393C37.8575 5.49249 37.3769 5.32677 36.8182 5.32677C36.1269 5.32677 35.5895 5.53984 35.206 5.96597C34.8225 6.38738 34.6307 6.92952 34.6307 7.5924V14.5455H32.5142V7.2941C32.5142 6.70224 32.3296 6.22639 31.9603 5.86654C31.5909 5.50669 31.1104 5.32677 30.5185 5.32677C30.116 5.32677 29.7444 5.4333 29.4035 5.64637C29.0673 5.85471 28.795 6.1459 28.5867 6.51995C28.3831 6.89401 28.2813 7.32724 28.2813 7.81967V14.5455H26.1577Z" fill="#555555"/>
<path d="M17.9456 14.787C17.2543 14.787 16.6293 14.6592 16.0706 14.4035C15.5119 14.1431 15.0692 13.7666 14.7425 13.2742C14.4205 12.7818 14.2595 12.1781 14.2595 11.4631C14.2595 10.8476 14.3779 10.341 14.6146 9.94325C14.8514 9.54552 15.171 9.23065 15.5734 8.99865C15.9759 8.76664 16.4257 8.59145 16.9229 8.47308C17.42 8.35471 17.9267 8.26474 18.4428 8.20319C19.0962 8.12743 19.6265 8.06588 20.0337 8.01853C20.4409 7.96645 20.7368 7.88359 20.9215 7.76995C21.1061 7.65632 21.1984 7.47166 21.1984 7.21597V7.16626C21.1984 6.54599 21.0232 6.06541 20.6729 5.7245C20.3272 5.38359 19.8111 5.21313 19.1246 5.21313C18.4096 5.21313 17.8462 5.37175 17.4342 5.68899C17.027 6.00149 16.7453 6.3495 16.5891 6.73302L14.5933 6.27847C14.8301 5.6156 15.1757 5.08056 15.6303 4.67336C16.0895 4.26143 16.6175 3.96313 17.2141 3.77847C17.8107 3.58908 18.438 3.49438 19.0962 3.49438C19.5318 3.49438 19.9934 3.54647 20.4811 3.65063C20.9735 3.75007 21.4328 3.93472 21.859 4.20461C22.2898 4.4745 22.6426 4.86039 22.9172 5.36228C23.1918 5.85944 23.3291 6.50575 23.3291 7.3012V14.5455H21.2553V13.054H21.17C21.0327 13.3287 20.8268 13.5986 20.5521 13.8637C20.2775 14.1289 19.9248 14.349 19.4939 14.5242C19.063 14.6994 18.5469 14.787 17.9456 14.787ZM18.4072 13.0825C18.9944 13.0825 19.4963 12.9664 19.9129 12.7344C20.3343 12.5024 20.6539 12.1994 20.8717 11.8253C21.0943 11.4466 21.2055 11.0417 21.2055 10.6109V9.20461C21.1298 9.28037 20.983 9.35139 20.7652 9.41768C20.5521 9.47923 20.3083 9.53368 20.0337 9.58103C19.759 9.62365 19.4915 9.66389 19.2311 9.70177C18.9707 9.73491 18.7529 9.76332 18.5777 9.787C18.1658 9.83908 17.7893 9.92668 17.4484 10.0498C17.1123 10.1729 16.8424 10.3504 16.6388 10.5825C16.4399 10.8097 16.3405 11.1128 16.3405 11.4915C16.3405 12.0171 16.5346 12.4148 16.9229 12.6847C17.3111 12.9499 17.8059 13.0825 18.4072 13.0825Z" fill="#555555"/>
<path d="M11.7401 0V14.5455H9.72301L2.32954 3.87784H2.1946V14.5455H0V0H2.03125L9.43182 10.6818H9.56676V0H11.7401Z" fill="#555555"/>
</svg>
