<svg width="95" height="20" viewBox="0 0 95 20" fill="none" xmlns="http://www.w3.org/2000/svg">
<path d="M90.0477 8.76434L90.1827 5.76718L87.6543 7.3936L86.8801 6.04417L89.5648 4.67343L86.8801 3.30269L87.6543 1.95326L90.1827 3.57968L90.0477 0.58252H91.5889L91.454 3.57968L93.9824 1.95326L94.7565 3.30269L92.0719 4.67343L94.7565 6.04417L93.9824 7.3936L91.454 5.76718L91.5889 8.76434H90.0477Z" fill="#555555"/>
<path d="M79.9928 15.3482C78.918 15.3482 77.9923 15.1186 77.2158 14.6593C76.444 14.1953 75.8474 13.5442 75.426 12.7062C75.0094 11.8634 74.801 10.8761 74.801 9.74452C74.801 8.62709 75.0094 7.64225 75.426 6.78997C75.8474 5.9377 76.4345 5.27245 77.1874 4.79423C77.945 4.31601 78.8304 4.0769 79.8436 4.0769C80.4592 4.0769 81.0558 4.1787 81.6334 4.3823C82.2111 4.5859 82.7295 4.9055 83.1888 5.34111C83.6481 5.77671 84.0103 6.34253 84.2755 7.03855C84.5406 7.72984 84.6732 8.57027 84.6732 9.55986V10.3127H76.0013V8.72179H82.5922C82.5922 8.16308 82.4786 7.66829 82.2513 7.23742C82.024 6.80181 81.7044 6.45853 81.2925 6.20758C80.8853 5.95664 80.4071 5.83117 79.8578 5.83117C79.2613 5.83117 78.7404 5.97794 78.2953 6.27151C77.855 6.56033 77.5141 6.93912 77.2726 7.40787C77.0359 7.87188 76.9175 8.37615 76.9175 8.92065V10.1636C76.9175 10.8927 77.0453 11.513 77.301 12.0243C77.5614 12.5357 77.9237 12.9263 78.3877 13.1962C78.8517 13.4614 79.3938 13.594 80.0141 13.594C80.4166 13.594 80.7835 13.5371 81.1149 13.4235C81.4464 13.3051 81.7328 13.1299 81.9743 12.8979C82.2158 12.6659 82.4005 12.3795 82.5283 12.0386L84.5382 12.4008C84.3773 12.9926 84.0884 13.5111 83.6718 13.9562C83.2598 14.3965 82.7414 14.7398 82.1164 14.986C81.4961 15.2275 80.7882 15.3482 79.9928 15.3482Z" fill="#555555"/>
<path d="M67.5211 19.4462C66.6547 19.4462 65.9089 19.3326 65.2839 19.1053C64.6637 18.878 64.157 18.5774 63.764 18.2033C63.3711 17.8293 63.0775 17.4197 62.8834 16.9746L64.7086 16.2218C64.8365 16.4301 65.0069 16.6503 65.22 16.8823C65.4378 17.119 65.7314 17.3203 66.1007 17.486C66.4747 17.6517 66.9553 17.7346 67.5425 17.7346C68.3474 17.7346 69.0126 17.5381 69.5382 17.1451C70.0638 16.7568 70.3265 16.1366 70.3265 15.2843V13.1394H70.1916C70.0638 13.3714 69.8791 13.6295 69.6376 13.9136C69.4009 14.1976 69.0742 14.4439 68.6575 14.6522C68.2408 14.8605 67.6987 14.9647 67.0311 14.9647C66.1693 14.9647 65.3928 14.7635 64.7015 14.361C64.015 13.9538 63.4705 13.3548 63.068 12.5641C62.6703 11.7687 62.4714 10.7909 62.4714 9.63088C62.4714 8.47084 62.6679 7.47652 63.0609 6.64793C63.4586 5.81933 64.0032 5.18486 64.6944 4.74452C65.3857 4.29944 66.1693 4.0769 67.0453 4.0769C67.7224 4.0769 68.2693 4.19054 68.6859 4.41781C69.1026 4.64035 69.4269 4.90077 69.6589 5.19906C69.8957 5.49736 70.078 5.76014 70.2058 5.98742H70.3621V4.21895H72.443V15.3695C72.443 16.307 72.2252 17.0764 71.7896 17.6778C71.354 18.2791 70.7645 18.7242 70.0211 19.013C69.2825 19.3018 68.4492 19.4462 67.5211 19.4462ZM67.4998 13.2033C68.1106 13.2033 68.6267 13.0613 69.0481 12.7772C69.4743 12.4884 69.7962 12.0764 70.014 11.5414C70.2366 11.0016 70.3479 10.3553 70.3479 9.60247C70.3479 8.86857 70.239 8.22226 70.0211 7.66355C69.8033 7.10484 69.4837 6.66923 69.0623 6.35673C68.6409 6.0395 68.1201 5.88088 67.4998 5.88088C66.8606 5.88088 66.328 6.0466 65.9018 6.37804C65.4757 6.70474 65.1537 7.14982 64.9359 7.71327C64.7229 8.27671 64.6163 8.90645 64.6163 9.60247C64.6163 10.3174 64.7252 10.9448 64.943 11.4846C65.1608 12.0243 65.4828 12.4457 65.9089 12.7488C66.3398 13.0518 66.8701 13.2033 67.4998 13.2033Z" fill="#555555"/>
<path d="M54.7351 15.3695C54.0439 15.3695 53.4189 15.2417 52.8601 14.986C52.3014 14.7256 51.8587 14.3492 51.532 13.8567C51.2101 13.3643 51.0491 12.7606 51.0491 12.0457C51.0491 11.4301 51.1674 10.9235 51.4042 10.5258C51.6409 10.128 51.9605 9.81317 52.363 9.58117C52.7655 9.34916 53.2153 9.17397 53.7124 9.0556C54.2096 8.93723 54.7162 8.84726 55.2323 8.78571C55.8857 8.70995 56.416 8.6484 56.8232 8.60105C57.2304 8.54897 57.5263 8.46611 57.711 8.35247C57.8957 8.23884 57.988 8.05418 57.988 7.79849V7.74878C57.988 7.12851 57.8128 6.64793 57.4624 6.30702C57.1168 5.96611 56.6007 5.79565 55.9141 5.79565C55.1992 5.79565 54.6357 5.95427 54.2238 6.27151C53.8166 6.58401 53.5349 6.93202 53.3786 7.31554L51.3829 6.86099C51.6196 6.19812 51.9653 5.66308 52.4198 5.25588C52.8791 4.84395 53.407 4.54565 54.0036 4.36099C54.6002 4.1716 55.2276 4.0769 55.8857 4.0769C56.3213 4.0769 56.783 4.12899 57.2707 4.23315C57.7631 4.33259 58.2224 4.51724 58.6485 4.78713C59.0794 5.05702 59.4321 5.44291 59.7067 5.9448C59.9814 6.44196 60.1187 7.08827 60.1187 7.88372V15.128H58.0448V13.6366H57.9596C57.8223 13.9112 57.6163 14.1811 57.3417 14.4462C57.0671 14.7114 56.7143 14.9315 56.2834 15.1067C55.8526 15.2819 55.3365 15.3695 54.7351 15.3695ZM55.1968 13.665C55.7839 13.665 56.2858 13.549 56.7025 13.317C57.1239 13.085 57.4435 12.7819 57.6613 12.4079C57.8838 12.0291 57.9951 11.6243 57.9951 11.1934V9.78713C57.9193 9.86289 57.7726 9.93391 57.5548 10.0002C57.3417 10.0618 57.0978 10.1162 56.8232 10.1636C56.5486 10.2062 56.2811 10.2464 56.0207 10.2843C55.7602 10.3174 55.5424 10.3458 55.3673 10.3695C54.9553 10.4216 54.5789 10.5092 54.238 10.6323C53.9018 10.7554 53.6319 10.933 53.4283 11.165C53.2295 11.3922 53.13 11.6953 53.13 12.0741C53.13 12.5996 53.3242 12.9974 53.7124 13.2672C54.1007 13.5324 54.5955 13.665 55.1968 13.665Z" fill="#555555"/>
<path d="M49.0126 6.8823L47.0879 7.22321C47.0074 6.977 46.8796 6.74262 46.7044 6.52008C46.534 6.29755 46.3019 6.11526 46.0084 5.97321C45.7148 5.83116 45.3479 5.76014 44.9075 5.76014C44.3062 5.76014 43.8043 5.89509 43.4019 6.16497C42.9994 6.43012 42.7982 6.7734 42.7982 7.1948C42.7982 7.55938 42.9331 7.85295 43.203 8.07548C43.4729 8.29802 43.9085 8.48031 44.5098 8.62236L46.2428 9.02008C47.2466 9.25209 47.9947 9.60957 48.4871 10.0925C48.9795 10.5755 49.2257 11.2028 49.2257 11.9746C49.2257 12.628 49.0363 13.2104 48.6575 13.7218C48.2835 14.2284 47.7603 14.6261 47.0879 14.915C46.4203 15.2038 45.6462 15.3482 44.7655 15.3482C43.5439 15.3482 42.5472 15.0878 41.7754 14.567C41.0037 14.0414 40.5302 13.2957 40.355 12.3297L42.4075 12.0172C42.5354 12.5523 42.7982 12.9571 43.1959 13.2317C43.5936 13.5016 44.1121 13.6366 44.7513 13.6366C45.4473 13.6366 46.0037 13.4922 46.4203 13.2033C46.837 12.9098 47.0453 12.5523 47.0453 12.1309C47.0453 11.79 46.9175 11.5035 46.6618 11.2715C46.4108 11.0395 46.025 10.8643 45.5041 10.7459L43.6575 10.3411C42.6395 10.1091 41.8867 9.73978 41.399 9.23315C40.9161 8.72653 40.6746 8.08495 40.6746 7.30844C40.6746 6.6645 40.8545 6.10105 41.2144 5.6181C41.5742 5.13514 42.0714 4.75872 42.7058 4.48884C43.3403 4.21421 44.0671 4.0769 44.8862 4.0769C46.0652 4.0769 46.9932 4.33259 47.6703 4.84395C48.3474 5.35058 48.7948 6.03003 49.0126 6.8823Z" fill="#555555"/>
<path d="M38.29 6.8823L36.3653 7.22321C36.2848 6.977 36.1569 6.74262 35.9818 6.52008C35.8113 6.29755 35.5793 6.11526 35.2857 5.97321C34.9922 5.83116 34.6252 5.76014 34.1849 5.76014C33.5836 5.76014 33.0817 5.89509 32.6792 6.16497C32.2767 6.43012 32.0755 6.7734 32.0755 7.1948C32.0755 7.55938 32.2104 7.85295 32.4803 8.07548C32.7502 8.29802 33.1858 8.48031 33.7872 8.62236L35.5201 9.02008C36.5239 9.25209 37.272 9.60957 37.7644 10.0925C38.2569 10.5755 38.5031 11.2028 38.5031 11.9746C38.5031 12.628 38.3137 13.2104 37.9349 13.7218C37.5608 14.2284 37.0376 14.6261 36.3653 14.915C35.6977 15.2038 34.9235 15.3482 34.0428 15.3482C32.8212 15.3482 31.8246 15.0878 31.0528 14.567C30.281 14.0414 29.8075 13.2957 29.6323 12.3297L31.6849 12.0172C31.8127 12.5523 32.0755 12.9571 32.4732 13.2317C32.871 13.5016 33.3894 13.6366 34.0286 13.6366C34.7247 13.6366 35.281 13.4922 35.6977 13.2033C36.1143 12.9098 36.3227 12.5523 36.3227 12.1309C36.3227 11.79 36.1948 11.5035 35.9391 11.2715C35.6882 11.0395 35.3023 10.8643 34.7815 10.7459L32.9349 10.3411C31.9169 10.1091 31.164 9.73978 30.6764 9.23315C30.1934 8.72653 29.9519 8.08495 29.9519 7.30844C29.9519 6.6645 30.1319 6.10105 30.4917 5.6181C30.8515 5.13514 31.3487 4.75872 31.9832 4.48884C32.6176 4.21421 33.3444 4.0769 34.1636 4.0769C35.3426 4.0769 36.2706 4.33259 36.9477 4.84395C37.6247 5.35058 38.0722 6.03003 38.29 6.8823Z" fill="#555555"/>
<path d="M23.0787 15.3482C22.0039 15.3482 21.0783 15.1186 20.3017 14.6593C19.53 14.1953 18.9334 13.5442 18.512 12.7062C18.0953 11.8634 17.887 10.8761 17.887 9.74452C17.887 8.62709 18.0953 7.64225 18.512 6.78997C18.9334 5.9377 19.5205 5.27245 20.2733 4.79423C21.0309 4.31601 21.9163 4.0769 22.9296 4.0769C23.5451 4.0769 24.1417 4.1787 24.7193 4.3823C25.297 4.5859 25.8155 4.9055 26.2747 5.34111C26.734 5.77671 27.0962 6.34253 27.3614 7.03855C27.6265 7.72984 27.7591 8.57027 27.7591 9.55986V10.3127H19.0872V8.72179H25.6782C25.6782 8.16308 25.5645 7.66829 25.3372 7.23742C25.11 6.80181 24.7904 6.45853 24.3784 6.20758C23.9712 5.95664 23.493 5.83117 22.9438 5.83117C22.3472 5.83117 21.8264 5.97794 21.3813 6.27151C20.9409 6.56033 20.6 6.93912 20.3586 7.40787C20.1218 7.87188 20.0034 8.37615 20.0034 8.92065V10.1636C20.0034 10.8927 20.1313 11.513 20.387 12.0243C20.6474 12.5357 21.0096 12.9263 21.4736 13.1962C21.9376 13.4614 22.4798 13.594 23.1 13.594C23.5025 13.594 23.8694 13.5371 24.2009 13.4235C24.5323 13.3051 24.8188 13.1299 25.0603 12.8979C25.3017 12.6659 25.4864 12.3795 25.6142 12.0386L27.6242 12.4008C27.4632 12.9926 27.1744 13.5111 26.7577 13.9562C26.3458 14.3965 25.8273 14.7398 25.2023 14.986C24.582 15.2275 23.8742 15.3482 23.0787 15.3482Z" fill="#555555"/>
<path d="M0.598145 0.58252H3.2615L7.89218 11.8893H8.06263L12.6933 0.58252H15.3567V15.128H13.2686V4.60241H13.1337L8.84388 15.1067H7.11093L2.82116 4.5953H2.68621V15.128H0.598145V0.58252Z" fill="#555555"/>
</svg>
