<svg width="76" height="20" viewBox="0 0 76 20" fill="none" xmlns="http://www.w3.org/2000/svg">
<path d="M75.3513 0.58252V15.128H73.1496V2.78422H73.0643L69.5842 5.05695V2.95468L73.2135 0.58252H75.3513Z" fill="#555555"/>
<path d="M54.7388 8.65052V15.1278H52.6152V4.21871H54.6536V5.99427H54.7885C55.0395 5.41662 55.4325 4.95261 55.9675 4.60223C56.5073 4.25185 57.1867 4.07666 58.0059 4.07666C58.7492 4.07666 59.4003 4.23291 59.959 4.54541C60.5177 4.85318 60.9509 5.31245 61.2587 5.92325C61.5665 6.53405 61.7204 7.28925 61.7204 8.18888V15.1278H59.5968V8.44456C59.5968 7.65384 59.3908 7.03594 58.9789 6.59086C58.5669 6.14105 58.0011 5.91615 57.2814 5.91615C56.789 5.91615 56.351 6.02268 55.9675 6.23575C55.5887 6.44882 55.2881 6.76132 55.0655 7.17325C54.8477 7.58045 54.7388 8.07287 54.7388 8.65052Z" fill="#555555"/>
<path d="M45.1597 15.348C44.137 15.348 43.2444 15.1136 42.4821 14.6448C41.7198 14.1761 41.128 13.5203 40.7066 12.6775C40.2852 11.8347 40.0745 10.8499 40.0745 9.72297C40.0745 8.59134 40.2852 7.60175 40.7066 6.75422C41.128 5.90668 41.7198 5.24853 42.4821 4.77979C43.2444 4.31104 44.137 4.07666 45.1597 4.07666C46.1824 4.07666 47.0749 4.31104 47.8372 4.77979C48.5996 5.24853 49.1914 5.90668 49.6128 6.75422C50.0342 7.60175 50.2449 8.59134 50.2449 9.72297C50.2449 10.8499 50.0342 11.8347 49.6128 12.6775C49.1914 13.5203 48.5996 14.1761 47.8372 14.6448C47.0749 15.1136 46.1824 15.348 45.1597 15.348ZM45.1668 13.5653C45.8297 13.5653 46.3789 13.3901 46.8145 13.0397C47.2501 12.6893 47.5721 12.223 47.7804 11.6406C47.9935 11.0582 48.1 10.4166 48.1 9.71586C48.1 9.01984 47.9935 8.38064 47.7804 7.79825C47.5721 7.21113 47.2501 6.74001 46.8145 6.3849C46.3789 6.02978 45.8297 5.85223 45.1668 5.85223C44.4992 5.85223 43.9452 6.02978 43.5049 6.3849C43.0693 6.74001 42.7449 7.21113 42.5318 7.79825C42.3235 8.38064 42.2193 9.01984 42.2193 9.71586C42.2193 10.4166 42.3235 11.0582 42.5318 11.6406C42.7449 12.223 43.0693 12.6893 43.5049 13.0397C43.9452 13.3901 44.4992 13.5653 45.1668 13.5653Z" fill="#555555"/>
<path d="M35.5839 15.1278V4.21875H37.7074V15.1278H35.5839ZM36.6563 2.53551C36.287 2.53551 35.9697 2.4124 35.7046 2.16619C35.4442 1.91525 35.314 1.61695 35.314 1.27131C35.314 0.920928 35.4442 0.622633 35.7046 0.37642C35.9697 0.125473 36.287 0 36.6563 0C37.0256 0 37.3405 0.125473 37.6009 0.37642C37.8661 0.622633 37.9986 0.920928 37.9986 1.27131C37.9986 1.61695 37.8661 1.91525 37.6009 2.16619C37.3405 2.4124 37.0256 2.53551 36.6563 2.53551Z" fill="#555555"/>
<path d="M33.2349 4.21862V5.92316H27.2761V4.21862H33.2349ZM28.8741 1.60498H30.9977V11.9246C30.9977 12.3365 31.0593 12.6466 31.1824 12.855C31.3055 13.0586 31.4641 13.1983 31.6582 13.274C31.8571 13.345 32.0725 13.3805 32.3045 13.3805C32.475 13.3805 32.6241 13.3687 32.752 13.345C32.8798 13.3214 32.9792 13.3024 33.0503 13.2882L33.4338 15.0425C33.3107 15.0898 33.1355 15.1372 32.9082 15.1845C32.681 15.2366 32.3969 15.265 32.056 15.2698C31.4972 15.2792 30.9764 15.1798 30.4935 14.9715C30.0105 14.7631 29.6199 14.4412 29.3216 14.0055C29.0233 13.5699 28.8741 13.0231 28.8741 12.3649V1.60498Z" fill="#555555"/>
<path d="M15.7988 19.2187V4.21871H17.8727V5.98717H18.0502C18.1734 5.7599 18.3509 5.49711 18.5829 5.19882C18.8149 4.90052 19.1369 4.64011 19.5488 4.41757C19.9608 4.1903 20.5053 4.07666 21.1824 4.07666C22.063 4.07666 22.849 4.2992 23.5403 4.74427C24.2316 5.18935 24.7737 5.83092 25.1667 6.66899C25.5645 7.50706 25.7633 8.51558 25.7633 9.69456C25.7633 10.8735 25.5668 11.8844 25.1738 12.7272C24.7808 13.5653 24.2411 14.2116 23.5545 14.6661C22.868 15.116 22.0843 15.3409 21.2037 15.3409C20.5408 15.3409 19.9986 15.2296 19.5772 15.0071C19.1606 14.7845 18.8339 14.5241 18.5971 14.2258C18.3604 13.9275 18.1781 13.6624 18.0502 13.4304H17.9224V19.2187H15.7988ZM17.8798 9.67325C17.8798 10.4403 17.9911 11.1126 18.2136 11.6903C18.4361 12.2679 18.7581 12.7201 19.1795 13.0468C19.6009 13.3688 20.117 13.5298 20.7278 13.5298C21.3623 13.5298 21.8926 13.3617 22.3187 13.0255C22.7449 12.6846 23.0668 12.223 23.2846 11.6406C23.5072 11.0582 23.6184 10.4024 23.6184 9.67325C23.6184 8.95355 23.5095 8.30725 23.2917 7.73433C23.0787 7.16141 22.7567 6.70924 22.3258 6.3778C21.8997 6.04636 21.367 5.88064 20.7278 5.88064C20.1123 5.88064 19.5914 6.03925 19.1653 6.35649C18.7439 6.67372 18.4243 7.11643 18.2065 7.68461C17.9887 8.2528 17.8798 8.91567 17.8798 9.67325Z" fill="#555555"/>
<path d="M13.2331 7.85514C13.2331 9.40817 12.949 10.7434 12.3808 11.8608C11.8126 12.9735 11.0338 13.8305 10.0442 14.4318C9.05932 15.0284 7.93953 15.3267 6.68479 15.3267C5.42532 15.3267 4.3008 15.0284 3.31121 14.4318C2.32636 13.8305 1.54985 12.9711 0.981667 11.8537C0.413486 10.7363 0.129395 9.40343 0.129395 7.85514C0.129395 6.30211 0.413486 4.96925 0.981667 3.85656C1.54985 2.73913 2.32636 1.88212 3.31121 1.28553C4.3008 0.684208 5.42532 0.383545 6.68479 0.383545C7.93953 0.383545 9.05932 0.684208 10.0442 1.28553C11.0338 1.88212 11.8126 2.73913 12.3808 3.85656C12.949 4.96925 13.2331 6.30211 13.2331 7.85514ZM11.0598 7.85514C11.0598 6.67142 10.868 5.67474 10.4845 4.86508C10.1057 4.05069 9.58489 3.43516 8.92201 3.01849C8.26386 2.59709 7.51813 2.38639 6.68479 2.38639C5.84672 2.38639 5.09862 2.59709 4.44047 3.01849C3.78233 3.43516 3.2615 4.05069 2.87797 4.86508C2.49919 5.67474 2.30979 6.67142 2.30979 7.85514C2.30979 9.03885 2.49919 10.0379 2.87797 10.8523C3.2615 11.662 3.78233 12.2775 4.44047 12.6989C5.09862 13.1156 5.84672 13.3239 6.68479 13.3239C7.51813 13.3239 8.26386 13.1156 8.92201 12.6989C9.58489 12.2775 10.1057 11.662 10.4845 10.8523C10.868 10.0379 11.0598 9.03885 11.0598 7.85514Z" fill="#555555"/>
</svg>
