<svg width="69" height="16" viewBox="0 0 69 16" fill="none" xmlns="http://www.w3.org/2000/svg">
<path d="M64.0126 8.63641L64.1475 5.63925L61.6191 7.26567L60.845 5.91624L63.5296 4.5455L60.845 3.17476L61.6191 1.82533L64.1475 3.45175L64.0126 0.45459H65.5538L65.4188 3.45175L67.9472 1.82533L68.7214 3.17476L66.0367 4.5455L68.7214 5.91624L67.9472 7.26567L65.4188 5.63925L65.5538 8.63641H64.0126Z" fill="#555555"/>
<path d="M53.9574 15.2203C52.8826 15.2203 51.9569 14.9906 51.1804 14.5314C50.4086 14.0673 49.812 13.4163 49.3906 12.5782C48.974 11.7354 48.7656 10.7482 48.7656 9.61659C48.7656 8.49916 48.974 7.51432 49.3906 6.66204C49.812 5.80977 50.3991 5.14452 51.152 4.6663C51.9096 4.18808 52.795 3.94897 53.8082 3.94897C54.4238 3.94897 55.0204 4.05077 55.598 4.25437C56.1757 4.45797 56.6941 4.77757 57.1534 5.21318C57.6127 5.64878 57.9749 6.2146 58.2401 6.91062C58.5052 7.60191 58.6378 8.44235 58.6378 9.43193V10.1848H49.9659V8.59386H56.5568C56.5568 8.03515 56.4432 7.54036 56.2159 7.10949C55.9886 6.67388 55.669 6.3306 55.2571 6.07965C54.8499 5.82871 54.3717 5.70324 53.8224 5.70324C53.2259 5.70324 52.705 5.85002 52.2599 6.14358C51.8196 6.4324 51.4787 6.81119 51.2372 7.27994C51.0005 7.74395 50.8821 8.24822 50.8821 8.79272V10.0356C50.8821 10.7648 51.0099 11.3851 51.2656 11.8964C51.526 12.4078 51.8883 12.7984 52.3523 13.0683C52.8163 13.3334 53.3584 13.466 53.9787 13.466C54.3812 13.466 54.7481 13.4092 55.0795 13.2956C55.411 13.1772 55.6974 13.002 55.9389 12.77C56.1804 12.538 56.3651 12.2515 56.4929 11.9106L58.5028 12.2728C58.3419 12.8647 58.053 13.3832 57.6364 13.8282C57.2244 14.2686 56.706 14.6119 56.081 14.8581C55.4607 15.0995 54.7528 15.2203 53.9574 15.2203Z" fill="#555555"/>
<path d="M39.4263 8.52284V15.0001H37.3027V4.09102H39.3411V5.86659H39.476C39.727 5.28894 40.12 4.82492 40.655 4.47454C41.1948 4.12416 41.8742 3.94897 42.6934 3.94897C43.4367 3.94897 44.0878 4.10522 44.6465 4.41772C45.2052 4.72549 45.6384 5.18477 45.9462 5.79556C46.254 6.40636 46.4079 7.16157 46.4079 8.06119V15.0001H44.2843V8.31687C44.2843 7.52615 44.0783 6.90825 43.6664 6.46318C43.2544 6.01337 42.6886 5.78846 41.9689 5.78846C41.4765 5.78846 41.0385 5.895 40.655 6.10806C40.2762 6.32113 39.9756 6.63363 39.753 7.04556C39.5352 7.45276 39.4263 7.94519 39.4263 8.52284Z" fill="#555555"/>
<path d="M29.8469 15.2203C28.8242 15.2203 27.9317 14.9859 27.1694 14.5172C26.4071 14.0484 25.8152 13.3926 25.3938 12.5498C24.9724 11.707 24.7617 10.7222 24.7617 9.59528C24.7617 8.46365 24.9724 7.47407 25.3938 6.62653C25.8152 5.77899 26.4071 5.12085 27.1694 4.6521C27.9317 4.18335 28.8242 3.94897 29.8469 3.94897C30.8697 3.94897 31.7622 4.18335 32.5245 4.6521C33.2868 5.12085 33.8787 5.77899 34.3001 6.62653C34.7215 7.47407 34.9322 8.46365 34.9322 9.59528C34.9322 10.7222 34.7215 11.707 34.3001 12.5498C33.8787 13.3926 33.2868 14.0484 32.5245 14.5172C31.7622 14.9859 30.8697 15.2203 29.8469 15.2203ZM29.854 13.4376C30.5169 13.4376 31.0662 13.2624 31.5018 12.912C31.9374 12.5617 32.2594 12.0953 32.4677 11.5129C32.6808 10.9305 32.7873 10.2889 32.7873 9.58818C32.7873 8.89216 32.6808 8.25295 32.4677 7.67056C32.2594 7.08344 31.9374 6.61233 31.5018 6.25721C31.0662 5.9021 30.5169 5.72454 29.854 5.72454C29.1864 5.72454 28.6325 5.9021 28.1921 6.25721C27.7565 6.61233 27.4322 7.08344 27.2191 7.67056C27.0108 8.25295 26.9066 8.89216 26.9066 9.58818C26.9066 10.2889 27.0108 10.9305 27.2191 11.5129C27.4322 12.0953 27.7565 12.5617 28.1921 12.912C28.6325 13.2624 29.1864 13.4376 29.854 13.4376Z" fill="#555555"/>
<path d="M15.3443 8.52277V15H13.2207V0.45459H15.3159V5.86652H15.4508C15.7065 5.2794 16.0971 4.81302 16.6227 4.46737C17.1483 4.12173 17.8348 3.94891 18.6824 3.94891C19.4305 3.94891 20.0839 4.10279 20.6426 4.41056C21.206 4.71832 21.6416 5.1776 21.9494 5.7884C22.2619 6.39446 22.4181 7.15203 22.4181 8.06112V15H20.2946V8.31681C20.2946 7.51662 20.0886 6.89635 19.6767 6.45601C19.2647 6.01093 18.6918 5.7884 17.9579 5.7884C17.456 5.7884 17.0062 5.89493 16.6085 6.108C16.2155 6.32107 15.9054 6.63357 15.6781 7.0455C15.4556 7.4527 15.3443 7.94512 15.3443 8.52277Z" fill="#555555"/>
<path d="M0.598145 15V0.45459H5.7828C6.91443 0.45459 7.85193 0.660556 8.5953 1.07249C9.33868 1.48442 9.89502 2.04787 10.2643 2.76283C10.6337 3.47306 10.8183 4.27325 10.8183 5.1634C10.8183 6.05828 10.6313 6.86321 10.2572 7.57817C9.88792 8.2884 9.3292 8.85184 8.5811 9.26851C7.83773 9.68044 6.9026 9.88641 5.7757 9.88641H2.21036V8.02561H5.57684C6.2918 8.02561 6.87182 7.90251 7.3169 7.65629C7.76197 7.40535 8.08867 7.06444 8.29701 6.63357C8.50534 6.2027 8.60951 5.71264 8.60951 5.1634C8.60951 4.61415 8.50534 4.12647 8.29701 3.70033C8.08867 3.27419 7.7596 2.94039 7.30979 2.69891C6.86472 2.45743 6.2776 2.33669 5.54843 2.33669H2.79275V15H0.598145Z" fill="#555555"/>
</svg>
