<svg width="69" height="15" viewBox="0 0 69 15" fill="none" xmlns="http://www.w3.org/2000/svg">
<path d="M63.4147 8.18182L63.5496 5.18466L61.0212 6.81108L60.2471 5.46165L62.9317 4.09091L60.2471 2.72017L61.0212 1.37074L63.5496 2.99716L63.4147 0H64.9559L64.8209 2.99716L67.3493 1.37074L68.1235 2.72017L65.4388 4.09091L68.1235 5.46165L67.3493 6.81108L64.8209 5.18466L64.9559 8.18182H63.4147Z" fill="#555555"/>
<path d="M53.3597 14.7656C52.2849 14.7656 51.3593 14.536 50.5827 14.0767C49.811 13.6127 49.2144 12.9617 48.793 12.1236C48.3763 11.2808 48.168 10.2936 48.168 9.16194C48.168 8.04451 48.3763 7.05966 48.793 6.20739C49.2144 5.35512 49.8015 4.68987 50.5543 4.21165C51.3119 3.73343 52.1973 3.49432 53.2106 3.49432C53.8261 3.49432 54.4227 3.59612 55.0004 3.79972C55.578 4.00332 56.0965 4.32292 56.5558 4.75853C57.015 5.19413 57.3773 5.75995 57.6424 6.45597C57.9076 7.14726 58.0401 7.98769 58.0401 8.97728V9.73012H49.3683V8.13921H55.9592C55.9592 7.5805 55.8455 7.08571 55.6183 6.65483C55.391 6.21923 55.0714 5.87595 54.6594 5.625C54.2522 5.37406 53.774 5.24858 53.2248 5.24858C52.6282 5.24858 52.1074 5.39536 51.6623 5.68892C51.2219 5.97775 50.881 6.35654 50.6396 6.82529C50.4028 7.2893 50.2844 7.79357 50.2844 8.33807V9.58097C50.2844 10.3101 50.4123 10.9304 50.668 11.4418C50.9284 11.9531 51.2906 12.3438 51.7546 12.6136C52.2186 12.8788 52.7608 13.0114 53.381 13.0114C53.7835 13.0114 54.1504 12.9545 54.4819 12.8409C54.8133 12.7225 55.0998 12.5474 55.3413 12.3153C55.5827 12.0833 55.7674 11.7969 55.8952 11.456L57.9052 11.8182C57.7442 12.41 57.4554 12.9285 57.0387 13.3736C56.6268 13.8139 56.1083 14.1572 55.4833 14.4034C54.863 14.6449 54.1552 14.7656 53.3597 14.7656Z" fill="#555555"/>
<path d="M38.8277 8.06819V14.5455H36.7041V3.63637H38.7425V5.41194H38.8774C39.1283 4.83429 39.5213 4.37027 40.0564 4.01989C40.5962 3.66951 41.2756 3.49432 42.0947 3.49432C42.8381 3.49432 43.4891 3.65057 44.0479 3.96307C44.6066 4.27084 45.0398 4.73012 45.3476 5.34091C45.6553 5.95171 45.8092 6.70692 45.8092 7.60654V14.5455H43.6856V7.86222C43.6856 7.0715 43.4797 6.4536 43.0677 6.00853C42.6558 5.55872 42.09 5.33381 41.3703 5.33381C40.8779 5.33381 40.4399 5.44035 40.0564 5.65341C39.6776 5.86648 39.3769 6.17898 39.1544 6.59091C38.9366 6.99811 38.8277 7.49053 38.8277 8.06819Z" fill="#555555"/>
<path d="M29.2493 14.7656C28.2266 14.7656 27.334 14.5313 26.5717 14.0625C25.8094 13.5938 25.2176 12.938 24.7962 12.0952C24.3748 11.2524 24.1641 10.2675 24.1641 9.14063C24.1641 8.009 24.3748 7.01942 24.7962 6.17188C25.2176 5.32434 25.8094 4.6662 26.5717 4.19745C27.334 3.7287 28.2266 3.49432 29.2493 3.49432C30.272 3.49432 31.1645 3.7287 31.9268 4.19745C32.6892 4.6662 33.281 5.32434 33.7024 6.17188C34.1238 7.01942 34.3345 8.009 34.3345 9.14063C34.3345 10.2675 34.1238 11.2524 33.7024 12.0952C33.281 12.938 32.6892 13.5938 31.9268 14.0625C31.1645 14.5313 30.272 14.7656 29.2493 14.7656ZM29.2564 12.983C29.9193 12.983 30.4685 12.8078 30.9041 12.4574C31.3397 12.107 31.6617 11.6406 31.87 11.0582C32.0831 10.4759 32.1896 9.83429 32.1896 9.13353C32.1896 8.4375 32.0831 7.7983 31.87 7.21591C31.6617 6.62879 31.3397 6.15767 30.9041 5.80256C30.4685 5.44745 29.9193 5.26989 29.2564 5.26989C28.5888 5.26989 28.0348 5.44745 27.5945 5.80256C27.1589 6.15767 26.8345 6.62879 26.6214 7.21591C26.4131 7.7983 26.3089 8.4375 26.3089 9.13353C26.3089 9.83429 26.4131 10.4759 26.6214 11.0582C26.8345 11.6406 27.1589 12.107 27.5945 12.4574C28.0348 12.8078 28.5888 12.983 29.2564 12.983Z" fill="#555555"/>
<path d="M14.7456 8.06818V14.5455H12.6221V0H14.7172V5.41193H14.8522C15.1079 4.82481 15.4985 4.35843 16.0241 4.01278C16.5496 3.66714 17.2362 3.49432 18.0837 3.49432C18.8318 3.49432 19.4852 3.6482 20.0439 3.95597C20.6074 4.26373 21.043 4.72301 21.3508 5.33381C21.6633 5.93987 21.8195 6.69744 21.8195 7.60653V14.5455H19.6959V7.86222C19.6959 7.06203 19.49 6.44176 19.078 6.00142C18.6661 5.55634 18.0932 5.33381 17.3593 5.33381C16.8574 5.33381 16.4076 5.44034 16.0099 5.65341C15.6169 5.86648 15.3067 6.17898 15.0795 6.59091C14.8569 6.99811 14.7456 7.49053 14.7456 8.06818Z" fill="#555555"/>
<path d="M0 14.5455V0H5.18466C6.31629 0 7.25379 0.205966 7.99716 0.617898C8.74053 1.02983 9.29688 1.59328 9.66619 2.30824C10.0355 3.01847 10.2202 3.81866 10.2202 4.70881C10.2202 5.60369 10.0331 6.40862 9.65909 7.12358C9.28977 7.83381 8.73106 8.39725 7.98295 8.81392C7.23958 9.22585 6.30445 9.43182 5.17756 9.43182H1.61222V7.57102H4.97869C5.69366 7.57102 6.27367 7.44792 6.71875 7.2017C7.16383 6.95076 7.49053 6.60985 7.69886 6.17898C7.9072 5.74811 8.01136 5.25805 8.01136 4.70881C8.01136 4.15956 7.9072 3.67188 7.69886 3.24574C7.49053 2.8196 7.16146 2.4858 6.71165 2.24432C6.26657 2.00284 5.67945 1.8821 4.95028 1.8821H2.1946V14.5455H0Z" fill="#555555"/>
</svg>
