<svg width="528" height="49" viewBox="0 0 528 49" fill="none" xmlns="http://www.w3.org/2000/svg">
<path fill-rule="evenodd" clip-rule="evenodd" d="M518 0.657718H10C5.58172 0.657718 2 1.8356 2 3.28859V45.7114C2 47.1644 5.58172 48.3423 9.99999 48.3423H518C522.418 48.3423 526 47.1644 526 45.7114V3.28859C526 1.8356 522.418 0.657718 518 0.657718ZM10 0C4.47715 0 0 1.47235 0 3.28859V45.7114C0 47.5276 4.47714 49 9.99999 49H518C523.523 49 528 47.5276 528 45.7114V3.28859C528 1.47235 523.523 0 518 0H10Z" fill="black"/>
</svg>
