<svg width="528" height="150" viewBox="0 0 528 150" fill="none" xmlns="http://www.w3.org/2000/svg">
<path fill-rule="evenodd" clip-rule="evenodd" d="M518 2.12793H10C5.58172 2.12793 2 5.70965 2 10.1279V139.128C2 143.546 5.58172 147.128 9.99999 147.128H518C522.418 147.128 526 143.546 526 139.128V10.1279C526 5.70965 522.418 2.12793 518 2.12793ZM10 0.12793C4.47715 0.12793 0 4.60509 0 10.1279V139.128C0 144.651 4.47714 149.128 9.99999 149.128H518C523.523 149.128 528 144.651 528 139.128V10.1279C528 4.60508 523.523 0.12793 518 0.12793H10Z" fill="black"/>
</svg>
