<svg width="77" height="16" viewBox="0 0 77 16" fill="none" xmlns="http://www.w3.org/2000/svg">
<path d="M71.4791 15.348C70.4043 15.348 69.4786 15.1183 68.7021 14.659C67.9303 14.195 67.3338 13.544 66.9124 12.7059C66.4957 11.8631 66.2874 10.8759 66.2874 9.74427C66.2874 8.62685 66.4957 7.642 66.9124 6.78973C67.3338 5.93746 67.9209 5.27221 68.6737 4.79399C69.4313 4.31577 70.3167 4.07666 71.33 4.07666C71.9455 4.07666 72.5421 4.17846 73.1197 4.38206C73.6974 4.58566 74.2159 4.90526 74.6751 5.34086C75.1344 5.77647 75.4966 6.34228 75.7618 7.03831C76.0269 7.7296 76.1595 8.57003 76.1595 9.55961V10.3125H67.4876V8.72155H74.0785C74.0785 8.16283 73.9649 7.66804 73.7376 7.23717C73.5104 6.80156 73.1908 6.45829 72.7788 6.20734C72.3716 5.95639 71.8934 5.83092 71.3442 5.83092C70.7476 5.83092 70.2267 5.9777 69.7817 6.27126C69.3413 6.56009 69.0004 6.93888 68.7589 7.40763C68.5222 7.87164 68.4038 8.3759 68.4038 8.92041V10.1633C68.4038 10.8925 68.5317 11.5127 68.7874 12.0241C69.0478 12.5355 69.41 12.9261 69.874 13.196C70.338 13.4611 70.8802 13.5937 71.5004 13.5937C71.9029 13.5937 72.2698 13.5369 72.6013 13.4233C72.9327 13.3049 73.2192 13.1297 73.4606 12.8977C73.7021 12.6657 73.8868 12.3792 74.0146 12.0383L76.0246 12.4005C75.8636 12.9924 75.5748 13.5108 75.1581 13.9559C74.7462 14.3963 74.2277 14.7395 73.6027 14.9858C72.9824 15.2272 72.2746 15.348 71.4791 15.348Z" fill="#555555"/>
<path d="M64.5455 4.21862V5.92316H58.5867V4.21862H64.5455ZM60.1847 1.60498H62.3083V11.9246C62.3083 12.3365 62.3698 12.6466 62.4929 12.855C62.616 13.0586 62.7746 13.1983 62.9688 13.274C63.1676 13.345 63.3831 13.3805 63.6151 13.3805C63.7855 13.3805 63.9347 13.3687 64.0625 13.345C64.1904 13.3214 64.2898 13.3024 64.3608 13.2882L64.7443 15.0425C64.6212 15.0898 64.446 15.1372 64.2188 15.1845C63.9915 15.2366 63.7074 15.265 63.3665 15.2698C62.8078 15.2792 62.287 15.1798 61.804 14.9715C61.321 14.7631 60.9304 14.4412 60.6321 14.0055C60.3338 13.5699 60.1847 13.0231 60.1847 12.3649V1.60498Z" fill="#555555"/>
<path d="M54.4725 15.1278V4.21875H56.5961V15.1278H54.4725ZM55.545 2.53551C55.1756 2.53551 54.8584 2.4124 54.5933 2.16619C54.3328 1.91525 54.2026 1.61695 54.2026 1.27131C54.2026 0.920928 54.3328 0.622633 54.5933 0.37642C54.8584 0.125473 55.1756 0 55.545 0C55.9143 0 56.2292 0.125473 56.4896 0.37642C56.7547 0.622633 56.8873 0.920928 56.8873 1.27131C56.8873 1.61695 56.7547 1.91525 56.4896 2.16619C56.2292 2.4124 55.9143 2.53551 55.545 2.53551Z" fill="#555555"/>
<path d="M51.9248 6.88206L50 7.22297C49.9195 6.97675 49.7917 6.74238 49.6165 6.51984C49.4461 6.2973 49.2141 6.11501 48.9205 5.97297C48.6269 5.83092 48.26 5.7599 47.8196 5.7599C47.2183 5.7599 46.7164 5.89484 46.314 6.16473C45.9115 6.42988 45.7103 6.77316 45.7103 7.19456C45.7103 7.55914 45.8452 7.8527 46.1151 8.07524C46.385 8.29778 46.8206 8.48007 47.4219 8.62211L49.1549 9.01984C50.1587 9.25185 50.9068 9.60933 51.3992 10.0923C51.8916 10.5752 52.1378 11.2026 52.1378 11.9744C52.1378 12.6278 51.9484 13.2102 51.5696 13.7215C51.1956 14.2282 50.6724 14.6259 50 14.9147C49.3324 15.2036 48.5583 15.348 47.6776 15.348C46.456 15.348 45.4593 15.0876 44.6875 14.5667C43.9158 14.0411 43.4423 13.2954 43.2671 12.3295L45.3196 12.017C45.4475 12.552 45.7103 12.9569 46.108 13.2315C46.5057 13.5014 47.0242 13.6363 47.6634 13.6363C48.3594 13.6363 48.9158 13.4919 49.3324 13.2031C49.7491 12.9095 49.9574 12.552 49.9574 12.1306C49.9574 11.7897 49.8296 11.5033 49.5739 11.2713C49.323 11.0393 48.9371 10.8641 48.4162 10.7457L46.5696 10.3409C45.5517 10.1089 44.7988 9.73954 44.3111 9.23291C43.8282 8.72628 43.5867 8.08471 43.5867 7.30819C43.5867 6.66425 43.7666 6.10081 44.1265 5.61785C44.4863 5.1349 44.9835 4.75848 45.6179 4.48859C46.2524 4.21397 46.9792 4.07666 47.7983 4.07666C48.9773 4.07666 49.9053 4.33234 50.5824 4.84371C51.2595 5.35033 51.707 6.02978 51.9248 6.88206Z" fill="#555555"/>
<path d="M31.4009 15.1277V0.582275H33.5245V5.98711H33.6523C33.7754 5.75983 33.953 5.49705 34.185 5.19875C34.417 4.90046 34.7389 4.64004 35.1509 4.4175C35.5628 4.19023 36.1073 4.07659 36.7844 4.07659C37.6651 4.07659 38.4511 4.29913 39.1424 4.74421C39.8336 5.18928 40.3758 5.83085 40.7688 6.66892C41.1665 7.50699 41.3654 8.51551 41.3654 9.69449C41.3654 10.8735 41.1689 11.8844 40.7759 12.7272C40.3829 13.5652 39.8431 14.2115 39.1566 14.6661C38.47 15.1159 37.6864 15.3408 36.8057 15.3408C36.1428 15.3408 35.6007 15.2295 35.1793 15.007C34.7626 14.7845 34.4359 14.524 34.1992 14.2257C33.9624 13.9274 33.7801 13.6623 33.6523 13.4303H33.4747V15.1277H31.4009ZM33.4818 9.67318C33.4818 10.4402 33.5931 11.1126 33.8157 11.6902C34.0382 12.2679 34.3602 12.7201 34.7816 13.0468C35.203 13.3687 35.7191 13.5297 36.3299 13.5297C36.9643 13.5297 37.4946 13.3616 37.9208 13.0255C38.3469 12.6845 38.6689 12.2229 38.8867 11.6405C39.1092 11.0581 39.2205 10.4024 39.2205 9.67318C39.2205 8.95349 39.1116 8.30718 38.8938 7.73426C38.6807 7.16135 38.3587 6.70917 37.9279 6.37773C37.5017 6.04629 36.9691 5.88057 36.3299 5.88057C35.7143 5.88057 35.1935 6.03919 34.7674 6.35642C34.346 6.67366 34.0264 7.11637 33.8085 7.68455C33.5907 8.25273 33.4818 8.91561 33.4818 9.67318Z" fill="#555555"/>
<path d="M24.194 15.348C23.1191 15.348 22.1935 15.1183 21.417 14.659C20.6452 14.195 20.0486 13.544 19.6272 12.7059C19.2105 11.8631 19.0022 10.8759 19.0022 9.74427C19.0022 8.62685 19.2105 7.642 19.6272 6.78973C20.0486 5.93746 20.6357 5.27221 21.3886 4.79399C22.1461 4.31577 23.0316 4.07666 24.0448 4.07666C24.6603 4.07666 25.2569 4.17846 25.8346 4.38206C26.4122 4.58566 26.9307 4.90526 27.39 5.34086C27.8493 5.77647 28.2115 6.34228 28.4766 7.03831C28.7418 7.7296 28.8744 8.57003 28.8744 9.55961V10.3125H20.2025V8.72155H26.7934C26.7934 8.16283 26.6798 7.66804 26.4525 7.23717C26.2252 6.80156 25.9056 6.45829 25.4937 6.20734C25.0865 5.95639 24.6083 5.83092 24.059 5.83092C23.4624 5.83092 22.9416 5.9777 22.4965 6.27126C22.0562 6.56009 21.7153 6.93888 21.4738 7.40763C21.237 7.87164 21.1187 8.3759 21.1187 8.92041V10.1633C21.1187 10.8925 21.2465 11.5127 21.5022 12.0241C21.7626 12.5355 22.1248 12.9261 22.5888 13.196C23.0529 13.4611 23.595 13.5937 24.2153 13.5937C24.6177 13.5937 24.9847 13.5369 25.3161 13.4233C25.6476 13.3049 25.934 13.1297 26.1755 12.8977C26.417 12.6657 26.6016 12.3792 26.7295 12.0383L28.7394 12.4005C28.5784 12.9924 28.2896 13.5108 27.8729 13.9559C27.461 14.3963 26.9425 14.7395 26.3175 14.9858C25.6973 15.2272 24.9894 15.348 24.194 15.348Z" fill="#555555"/>
<path d="M4.03409 15.1277L0 0.582275H2.30824L5.14205 11.8465H5.27699L8.22443 0.582275H10.5114L13.4588 11.8536H13.5938L16.4205 0.582275H18.7358L14.6946 15.1277H12.4858L9.42472 4.23284H9.31108L6.25 15.1277H4.03409Z" fill="#555555"/>
</svg>
