<svg width="247" height="20" viewBox="0 0 247 20" fill="none" xmlns="http://www.w3.org/2000/svg">
<path d="M240.646 15.1279V4.21877H242.699V5.95173H242.812C243.011 5.36461 243.362 4.90296 243.864 4.56678C244.37 4.22587 244.943 4.05542 245.582 4.05542C245.715 4.05542 245.871 4.06015 246.051 4.06962C246.236 4.07909 246.38 4.09093 246.484 4.10514V6.13639C246.399 6.11271 246.248 6.08667 246.03 6.05826C245.812 6.02512 245.594 6.00854 245.376 6.00854C244.874 6.00854 244.427 6.11508 244.034 6.32815C243.646 6.53648 243.338 6.82767 243.111 7.20173C242.883 7.57105 242.77 7.99245 242.77 8.46593V15.1279H240.646Z" fill="black"/>
<path d="M233.191 15.348C232.168 15.348 231.275 15.1136 230.513 14.6448C229.751 14.1761 229.159 13.5203 228.738 12.6775C228.316 11.8347 228.105 10.8499 228.105 9.72297C228.105 8.59134 228.316 7.60175 228.738 6.75422C229.159 5.90668 229.751 5.24853 230.513 4.77979C231.275 4.31104 232.168 4.07666 233.191 4.07666C234.213 4.07666 235.106 4.31104 235.868 4.77979C236.631 5.24853 237.222 5.90668 237.644 6.75422C238.065 7.60175 238.276 8.59134 238.276 9.72297C238.276 10.8499 238.065 11.8347 237.644 12.6775C237.222 13.5203 236.631 14.1761 235.868 14.6448C235.106 15.1136 234.213 15.348 233.191 15.348ZM233.198 13.5653C233.861 13.5653 234.41 13.3901 234.846 13.0397C235.281 12.6893 235.603 12.223 235.811 11.6406C236.025 11.0582 236.131 10.4166 236.131 9.71586C236.131 9.01984 236.025 8.38064 235.811 7.79825C235.603 7.21113 235.281 6.74001 234.846 6.3849C234.41 6.02978 233.861 5.85223 233.198 5.85223C232.53 5.85223 231.976 6.02978 231.536 6.3849C231.1 6.74001 230.776 7.21113 230.563 7.79825C230.355 8.38064 230.25 9.01984 230.25 9.71586C230.25 10.4166 230.355 11.0582 230.563 11.6406C230.776 12.223 231.1 12.6893 231.536 13.0397C231.976 13.3901 232.53 13.5653 233.198 13.5653Z" fill="black"/>
<path d="M217.848 15.128V0.58252H226.868V2.47172H220.043V6.90354H226.221V8.78564H220.043V15.128H217.848Z" fill="black"/>
<path d="M204.615 19.446C203.748 19.446 203.002 19.3323 202.377 19.1051C201.757 18.8778 201.251 18.5771 200.858 18.2031C200.465 17.829 200.171 17.4195 199.977 16.9744L201.802 16.2215C201.93 16.4299 202.1 16.65 202.314 16.8821C202.531 17.1188 202.825 17.32 203.194 17.4858C203.568 17.6515 204.049 17.7343 204.636 17.7343C205.441 17.7343 206.106 17.5378 206.632 17.1448C207.157 16.7566 207.42 16.1363 207.42 15.284V13.1392H207.285C207.157 13.3712 206.973 13.6292 206.731 13.9133C206.494 14.1974 206.168 14.4436 205.751 14.6519C205.334 14.8603 204.792 14.9644 204.125 14.9644C203.263 14.9644 202.486 14.7632 201.795 14.3608C201.109 13.9536 200.564 13.3546 200.162 12.5639C199.764 11.7684 199.565 10.7907 199.565 9.63064C199.565 8.4706 199.761 7.47628 200.154 6.64768C200.552 5.81908 201.097 5.18461 201.788 4.74427C202.479 4.2992 203.263 4.07666 204.139 4.07666C204.816 4.07666 205.363 4.1903 205.779 4.41757C206.196 4.64011 206.52 4.90052 206.752 5.19882C206.989 5.49711 207.171 5.7599 207.299 5.98717H207.456V4.21871H209.537V15.3693C209.537 16.3068 209.319 17.0762 208.883 17.6775C208.448 18.2788 207.858 18.7239 207.115 19.0127C206.376 19.3016 205.543 19.446 204.615 19.446ZM204.593 13.2031C205.204 13.2031 205.72 13.061 206.142 12.7769C206.568 12.4881 206.89 12.0762 207.108 11.5411C207.33 11.0014 207.441 10.3551 207.441 9.60223C207.441 8.86833 207.332 8.22202 207.115 7.66331C206.897 7.1046 206.577 6.66899 206.156 6.35649C205.734 6.03925 205.214 5.88064 204.593 5.88064C203.954 5.88064 203.421 6.04636 202.995 6.3778C202.569 6.7045 202.247 7.14958 202.029 7.71302C201.816 8.27647 201.71 8.90621 201.71 9.60223C201.71 10.3172 201.819 10.9446 202.037 11.4843C202.254 12.0241 202.576 12.4455 203.002 12.7485C203.433 13.0516 203.964 13.2031 204.593 13.2031Z" fill="black"/>
<path d="M190.211 8.65052V15.1278H188.088V4.21871H190.126V5.99427H190.261C190.512 5.41662 190.905 4.95261 191.44 4.60223C191.98 4.25185 192.659 4.07666 193.478 4.07666C194.222 4.07666 194.873 4.23291 195.431 4.54541C195.99 4.85318 196.423 5.31245 196.731 5.92325C197.039 6.53405 197.193 7.28925 197.193 8.18888V15.1278H195.069V8.44456C195.069 7.65384 194.863 7.03594 194.451 6.59086C194.039 6.14105 193.474 5.91615 192.754 5.91615C192.261 5.91615 191.823 6.02268 191.44 6.23575C191.061 6.44882 190.76 6.76132 190.538 7.17325C190.32 7.58045 190.211 8.07287 190.211 8.65052Z" fill="black"/>
<path d="M183.107 15.1278V4.21875H185.231V15.1278H183.107ZM184.18 2.53551C183.81 2.53551 183.493 2.4124 183.228 2.16619C182.968 1.91525 182.837 1.61695 182.837 1.27131C182.837 0.920928 182.968 0.622633 183.228 0.37642C183.493 0.125473 183.81 0 184.18 0C184.549 0 184.864 0.125473 185.124 0.37642C185.389 0.622633 185.522 0.920928 185.522 1.27131C185.522 1.61695 185.389 1.91525 185.124 2.16619C184.864 2.4124 184.549 2.53551 184.18 2.53551Z" fill="black"/>
<path d="M173.927 11.4277L173.913 8.83536H174.283L178.629 4.21888H181.172L176.214 9.47456H175.881L173.927 11.4277ZM171.974 15.128V0.58252H174.098V15.128H171.974ZM178.864 15.128L174.957 9.94331L176.42 8.45894L181.47 15.128H178.864Z" fill="black"/>
<path d="M164.519 15.348C163.496 15.348 162.604 15.1136 161.841 14.6448C161.079 14.1761 160.487 13.5203 160.066 12.6775C159.644 11.8347 159.434 10.8499 159.434 9.72297C159.434 8.59134 159.644 7.60175 160.066 6.75422C160.487 5.90668 161.079 5.24853 161.841 4.77979C162.604 4.31104 163.496 4.07666 164.519 4.07666C165.542 4.07666 166.434 4.31104 167.196 4.77979C167.959 5.24853 168.551 5.90668 168.972 6.75422C169.393 7.60175 169.604 8.59134 169.604 9.72297C169.604 10.8499 169.393 11.8347 168.972 12.6775C168.551 13.5203 167.959 14.1761 167.196 14.6448C166.434 15.1136 165.542 15.348 164.519 15.348ZM164.526 13.5653C165.189 13.5653 165.738 13.3901 166.174 13.0397C166.609 12.6893 166.931 12.223 167.14 11.6406C167.353 11.0582 167.459 10.4166 167.459 9.71586C167.459 9.01984 167.353 8.38064 167.14 7.79825C166.931 7.21113 166.609 6.74001 166.174 6.3849C165.738 6.02978 165.189 5.85223 164.526 5.85223C163.858 5.85223 163.304 6.02978 162.864 6.3849C162.428 6.74001 162.104 7.21113 161.891 7.79825C161.683 8.38064 161.578 9.01984 161.578 9.71586C161.578 10.4166 161.683 11.0582 161.891 11.6406C162.104 12.223 162.428 12.6893 162.864 13.0397C163.304 13.3901 163.858 13.5653 164.526 13.5653Z" fill="black"/>
<path d="M152.468 15.348C151.445 15.348 150.553 15.1136 149.79 14.6448C149.028 14.1761 148.436 13.5203 148.015 12.6775C147.594 11.8347 147.383 10.8499 147.383 9.72297C147.383 8.59134 147.594 7.60175 148.015 6.75422C148.436 5.90668 149.028 5.24853 149.79 4.77979C150.553 4.31104 151.445 4.07666 152.468 4.07666C153.491 4.07666 154.383 4.31104 155.146 4.77979C155.908 5.24853 156.5 5.90668 156.921 6.75422C157.343 7.60175 157.553 8.59134 157.553 9.72297C157.553 10.8499 157.343 11.8347 156.921 12.6775C156.5 13.5203 155.908 14.1761 155.146 14.6448C154.383 15.1136 153.491 15.348 152.468 15.348ZM152.475 13.5653C153.138 13.5653 153.687 13.3901 154.123 13.0397C154.558 12.6893 154.88 12.223 155.089 11.6406C155.302 11.0582 155.408 10.4166 155.408 9.71586C155.408 9.01984 155.302 8.38064 155.089 7.79825C154.88 7.21113 154.558 6.74001 154.123 6.3849C153.687 6.02978 153.138 5.85223 152.475 5.85223C151.808 5.85223 151.254 6.02978 150.813 6.3849C150.378 6.74001 150.053 7.21113 149.84 7.79825C149.632 8.38064 149.528 9.01984 149.528 9.71586C149.528 10.4166 149.632 11.0582 149.84 11.6406C150.053 12.223 150.378 12.6893 150.813 13.0397C151.254 13.3901 151.808 13.5653 152.475 13.5653Z" fill="black"/>
<path d="M136.754 15.128V0.58252H138.949V13.2388H145.54V15.128H136.754Z" fill="black"/>
<path d="M126.307 10.6037V4.21875H128.437V15.1278H126.349V13.2386H126.236C125.985 13.821 125.582 14.3063 125.028 14.6946C124.479 15.0781 123.795 15.2699 122.976 15.2699C122.275 15.2699 121.655 15.116 121.115 14.8082C120.58 14.4957 120.159 14.0341 119.851 13.4233C119.548 12.8125 119.396 12.0573 119.396 11.1577V4.21875H121.52V10.902C121.52 11.6454 121.726 12.2372 122.138 12.6776C122.55 13.1179 123.085 13.3381 123.743 13.3381C124.141 13.3381 124.536 13.2386 124.929 13.0398C125.327 12.8409 125.656 12.5402 125.916 12.1378C126.181 11.7353 126.311 11.224 126.307 10.6037Z" fill="black"/>
<path d="M111.941 15.348C110.918 15.348 110.025 15.1136 109.263 14.6448C108.501 14.1761 107.909 13.5203 107.488 12.6775C107.066 11.8347 106.855 10.8499 106.855 9.72297C106.855 8.59134 107.066 7.60175 107.488 6.75422C107.909 5.90668 108.501 5.24853 109.263 4.77979C110.025 4.31104 110.918 4.07666 111.941 4.07666C112.963 4.07666 113.856 4.31104 114.618 4.77979C115.381 5.24853 115.972 5.90668 116.394 6.75422C116.815 7.60175 117.026 8.59134 117.026 9.72297C117.026 10.8499 116.815 11.8347 116.394 12.6775C115.972 13.5203 115.381 14.1761 114.618 14.6448C113.856 15.1136 112.963 15.348 111.941 15.348ZM111.948 13.5653C112.611 13.5653 113.16 13.3901 113.596 13.0397C114.031 12.6893 114.353 12.223 114.561 11.6406C114.775 11.0582 114.881 10.4166 114.881 9.71586C114.881 9.01984 114.775 8.38064 114.561 7.79825C114.353 7.21113 114.031 6.74001 113.596 6.3849C113.16 6.02978 112.611 5.85223 111.948 5.85223C111.28 5.85223 110.726 6.02978 110.286 6.3849C109.85 6.74001 109.526 7.21113 109.313 7.79825C109.105 8.38064 109 9.01984 109 9.71586C109 10.4166 109.105 11.0582 109.313 11.6406C109.526 12.223 109.85 12.6893 110.286 13.0397C110.726 13.3901 111.28 13.5653 111.948 13.5653Z" fill="black"/>
<path d="M94.4993 0.58252H96.9922L100.792 7.19474H100.948L104.748 0.58252H107.241L101.964 9.41775V15.128H99.7763V9.41775L94.4993 0.58252Z" fill="black"/>
<path d="M83.1215 15.348C82.0466 15.348 81.121 15.1183 80.3445 14.659C79.5727 14.195 78.9761 13.544 78.5547 12.7059C78.138 11.8631 77.9297 10.8759 77.9297 9.74427C77.9297 8.62685 78.138 7.642 78.5547 6.78973C78.9761 5.93746 79.5632 5.27221 80.316 4.79399C81.0736 4.31577 81.959 4.07666 82.9723 4.07666C83.5878 4.07666 84.1844 4.17846 84.7621 4.38206C85.3397 4.58566 85.8582 4.90526 86.3175 5.34086C86.7768 5.77647 87.139 6.34228 87.4041 7.03831C87.6693 7.7296 87.8018 8.57003 87.8018 9.55961V10.3125H79.13V8.72155H85.7209C85.7209 8.16283 85.6072 7.66804 85.38 7.23717C85.1527 6.80156 84.8331 6.45829 84.4212 6.20734C84.014 5.95639 83.5357 5.83092 82.9865 5.83092C82.3899 5.83092 81.8691 5.9777 81.424 6.27126C80.9837 6.56009 80.6428 6.93888 80.4013 7.40763C80.1645 7.87164 80.0462 8.3759 80.0462 8.92041V10.1633C80.0462 10.8925 80.174 11.5127 80.4297 12.0241C80.6901 12.5355 81.0523 12.9261 81.5163 13.196C81.9803 13.4611 82.5225 13.5937 83.1428 13.5937C83.5452 13.5937 83.9122 13.5369 84.2436 13.4233C84.575 13.3049 84.8615 13.1297 85.103 12.8977C85.3445 12.6657 85.5291 12.3792 85.657 12.0383L87.6669 12.4005C87.5059 12.9924 87.2171 13.5108 86.8004 13.9559C86.3885 14.3963 85.87 14.7395 85.245 14.9858C84.6248 15.2272 83.9169 15.348 83.1215 15.348Z" fill="black"/>
<path d="M71.1345 15.1279V4.21877H73.1871V5.95173H73.3007C73.4996 5.36461 73.85 4.90296 74.3519 4.56678C74.8585 4.22587 75.4314 4.05542 76.0706 4.05542C76.2032 4.05542 76.3594 4.06015 76.5394 4.06962C76.724 4.07909 76.8684 4.09093 76.9726 4.10514V6.13639C76.8874 6.11271 76.7358 6.08667 76.518 6.05826C76.3002 6.02512 76.0824 6.00854 75.8646 6.00854C75.3627 6.00854 74.9153 6.11508 74.5223 6.32815C74.134 6.53648 73.8263 6.82767 73.599 7.20173C73.3717 7.57105 73.2581 7.99245 73.2581 8.46593V15.1279H71.1345Z" fill="black"/>
<path d="M58.5297 15.128H56.2002L61.4346 0.58252H63.9701L69.2045 15.128H66.8749L62.7627 3.22456H62.6491L58.5297 15.128ZM58.9204 9.43195H66.4772V11.2785H58.9204V9.43195Z" fill="black"/>
<path d="M49.4886 4.21862V5.92316H43.5298V4.21862H49.4886ZM45.1278 1.60498H47.2514V11.9246C47.2514 12.3365 47.3129 12.6466 47.436 12.855C47.5591 13.0586 47.7178 13.1983 47.9119 13.274C48.1107 13.345 48.3262 13.3805 48.5582 13.3805C48.7286 13.3805 48.8778 13.3687 49.0056 13.345C49.1335 13.3214 49.2329 13.3024 49.3039 13.2882L49.6875 15.0425C49.5643 15.0898 49.3892 15.1372 49.1619 15.1845C48.9346 15.2366 48.6505 15.265 48.3096 15.2698C47.7509 15.2792 47.2301 15.1798 46.7471 14.9715C46.2642 14.7631 45.8735 14.4412 45.5752 14.0055C45.2769 13.5699 45.1278 13.0231 45.1278 12.3649V1.60498Z" fill="black"/>
<path d="M36.1841 15.3693C35.4928 15.3693 34.8678 15.2414 34.3091 14.9858C33.7504 14.7253 33.3077 14.3489 32.981 13.8565C32.659 13.3641 32.498 12.7604 32.498 12.0454C32.498 11.4299 32.6164 10.9233 32.8532 10.5255C33.0899 10.1278 33.4095 9.81293 33.812 9.58092C34.2144 9.34891 34.6642 9.17372 35.1614 9.05535C35.6586 8.93698 36.1652 8.84702 36.6813 8.78547C37.3347 8.70971 37.865 8.64816 38.2722 8.60081C38.6794 8.54872 38.9753 8.46586 39.16 8.35223C39.3446 8.23859 39.437 8.05393 39.437 7.79825V7.74854C39.437 7.12827 39.2618 6.64768 38.9114 6.30677C38.5658 5.96586 38.0497 5.79541 37.3631 5.79541C36.6481 5.79541 36.0847 5.95403 35.6728 6.27126C35.2656 6.58376 34.9838 6.93177 34.8276 7.3153L32.8319 6.86075C33.0686 6.19787 33.4142 5.66283 33.8688 5.25564C34.3281 4.84371 34.856 4.54541 35.4526 4.36075C36.0492 4.17136 36.6765 4.07666 37.3347 4.07666C37.7703 4.07666 38.2319 4.12874 38.7196 4.23291C39.2121 4.33234 39.6713 4.517 40.0975 4.78689C40.5283 5.05677 40.8811 5.44266 41.1557 5.94456C41.4303 6.44172 41.5676 7.08802 41.5676 7.88348V15.1278H39.4938V13.6363H39.4086C39.2712 13.9109 39.0653 14.1808 38.7907 14.446C38.516 14.7111 38.1633 14.9313 37.7324 15.1065C37.3016 15.2817 36.7854 15.3693 36.1841 15.3693ZM36.6458 13.6647C37.2329 13.6647 37.7348 13.5487 38.1515 13.3167C38.5729 13.0847 38.8925 12.7817 39.1103 12.4076C39.3328 12.0288 39.4441 11.624 39.4441 11.1931V9.78689C39.3683 9.86264 39.2215 9.93367 39.0037 9.99995C38.7907 10.0615 38.5468 10.116 38.2722 10.1633C37.9976 10.2059 37.7301 10.2462 37.4696 10.284C37.2092 10.3172 36.9914 10.3456 36.8162 10.3693C36.4043 10.4214 36.0279 10.509 35.687 10.6321C35.3508 10.7552 35.0809 10.9327 34.8773 11.1647C34.6784 11.392 34.579 11.695 34.579 12.0738C34.579 12.5994 34.7731 12.9971 35.1614 13.267C35.5497 13.5322 36.0444 13.6647 36.6458 13.6647Z" fill="black"/>
<path d="M23.1019 8.6507V15.128H20.9783V0.58252H23.0734V5.99445H23.2084C23.4641 5.40733 23.8547 4.94095 24.3803 4.5953C24.9058 4.24966 25.5924 4.07684 26.4399 4.07684C27.188 4.07684 27.8414 4.23072 28.4001 4.53849C28.9636 4.84625 29.3992 5.30553 29.707 5.91633C30.0195 6.52239 30.1757 7.27996 30.1757 8.18905V15.128H28.0521V8.44474C28.0521 7.64455 27.8462 7.02428 27.4342 6.58394C27.0223 6.13886 26.4494 5.91633 25.7155 5.91633C25.2136 5.91633 24.7638 6.02286 24.3661 6.23593C23.9731 6.449 23.6629 6.7615 23.4357 7.17343C23.2131 7.58063 23.1019 8.07305 23.1019 8.6507Z" fill="black"/>
<path d="M4.44596 15.128L0.411865 0.58252H2.7201L5.55391 11.8467H5.68885L8.6363 0.58252H10.9232L13.8707 11.8538H14.0056L16.8323 0.58252H19.1477L15.1065 15.128H12.8977L9.83658 4.23309H9.72295L6.66187 15.128H4.44596Z" fill="black"/>
</svg>
